<svg width="288" height="39" viewBox="0 0 288 39" fill="none" xmlns="http://www.w3.org/2000/svg">
<g clip-path="url(#clip0_309_1614)">
<path d="M109.506 12.5383L110.705 5.90368H105.056L103.857 12.5383H109.506Z" fill="white"/>
<path d="M147.759 22.5867C150.34 23.8262 153.754 24.1107 155.735 21.8348C155.379 22.0685 154.343 22.7289 152.86 22.8508C150.543 23.0337 148.359 21.7332 146.845 20.0669C143.482 16.3686 141.948 10.1608 143.38 3.65829C141.501 4.99943 139.936 6.63522 138.686 8.46405C139.387 14.5703 142.506 20.0771 147.759 22.5867Z" fill="white"/>
<path d="M152.931 17.5066C153.185 17.1611 153.926 16.1959 155.288 15.566C157.401 14.6008 159.901 15.0783 161.892 16.1248C166.322 18.4515 169.888 23.7653 170.762 30.3592C172.062 28.4592 172.987 26.3866 173.536 24.2428C170.782 18.7461 165.976 14.6313 160.175 14.0725C157.32 13.788 154.018 14.7024 152.931 17.5066Z" fill="white"/>
<path d="M153.947 21.9263C153.52 21.8755 152.311 21.7231 151.092 20.8493C149.192 19.5081 148.369 17.1002 148.277 14.8548C148.074 9.85599 150.889 4.1155 156.172 0.051431C153.926 -0.111132 151.661 0.11239 149.486 0.711839C146.103 5.84272 144.945 12.0709 147.363 17.3643C148.531 19.9857 150.97 22.3936 153.947 21.9263Z" fill="white"/>
<path d="M155.451 11.8271C153.083 13.4425 151.132 16.2569 152.108 19.1119C152.077 18.6852 152.027 17.4659 152.667 16.1146C153.662 14.0115 155.887 12.7821 158.082 12.3046C162.969 11.2378 169.116 13.0158 174.023 17.5066C173.8 15.2815 173.2 13.0869 172.215 11.0447C166.586 8.58597 160.256 8.52501 155.451 11.8271Z" fill="white"/>
<path d="M150.391 13.1276C149.619 15.881 149.934 19.2948 152.514 20.8493C152.22 20.5445 151.397 19.6402 151.01 18.1873C150.421 15.9419 151.336 13.5644 152.707 11.7864C155.765 7.83412 161.618 5.24327 168.262 5.5176C166.657 3.95293 164.788 2.66259 162.725 1.72786C156.842 3.48556 151.945 7.50899 150.391 13.1276Z" fill="white"/>
<path d="M240.542 13.219L240.227 14.9564C238.571 13.727 236.508 13.026 234.232 13.0463C228.715 13.0971 223.493 17.2424 221.268 22.5867L225.22 0.864244H218.525L200.816 24.3749L205.083 0.874403H199.281L167.257 37.9793H175.303L197.331 12.457L192.657 37.9793H197.961L217.173 12.4875L212.54 37.9793H218.474L220.14 28.8047C220.394 34.3928 224.143 38.7007 229.589 38.6397C231.926 38.6194 234.232 37.8777 236.295 36.6382L236.051 37.9692H241.7L246.201 13.2088H240.542V13.219ZM239.048 26.0106C238.164 30.2271 234.466 33.1126 230.676 33.1126C227.283 33.1126 224.865 29.8613 225.596 26.2138C226.44 21.9974 229.772 18.8274 233.765 18.8274C237.616 18.8274 239.892 21.9771 239.048 26.0106Z" fill="white"/>
<path d="M154.587 16.8157C155.003 16.7141 156.192 16.4499 157.635 16.8462C159.88 17.466 161.475 19.437 162.329 21.5199C164.229 26.1529 163.548 32.5132 159.972 38.1317C162.116 37.5323 164.168 36.5569 166.027 35.2259C167.45 29.2416 166.413 22.9931 162.329 18.8477C160.338 16.7852 157.218 15.3526 154.587 16.8157Z" fill="white"/>
<path d="M282.696 13.219L284.027 5.90368H278.378L277.047 13.219H268.198L262.467 20.2803L265.079 5.90368H259.43L258.149 12.9447H257.479C256.107 12.9447 254.35 13.473 252.704 14.4382L252.927 13.2088H247.278L242.777 37.9692H248.426L251.007 23.7551C251.901 19.7723 254.258 18.3194 256.869 18.3194H257.164L253.598 37.959H259.247L261.116 27.6566L267.304 37.959H278.195L281.731 18.4921H287.035L288 13.1987H282.696V13.219ZM272.912 35.9676L265.932 24.3545L273.776 14.7329L273.085 18.5124H276.082L272.912 35.9676Z" fill="white"/>
<path d="M98.3504 5.91385L96.6739 15.1291C94.9874 13.788 92.8436 13.0158 90.4762 13.0463C84.6748 13.1072 79.2086 17.7301 77.2376 23.5316C77.2782 17.4863 73.1532 13.0463 67.3619 13.0463C61.9364 13.0463 56.5616 16.8665 54.1333 21.9059L57.9536 0.874402H51.258L33.559 24.3749L37.8263 0.874402H32.0248L0 37.9793H8.04685L30.0741 12.457L25.4004 37.9793H30.704L49.9067 12.4875L45.2737 37.9793H51.2072L52.8227 29.0689C53.3307 34.4944 57.1814 38.6499 62.8406 38.6499C68.4084 38.6499 73.4986 34.85 75.8558 29.6073H69.8816C68.4185 31.7918 66.163 33.1329 63.5823 33.1329C61.1845 33.1329 58.5835 31.4362 58.3498 28.2662H76.4349C76.4654 34.1083 80.2551 38.7109 85.8432 38.6499C88.2715 38.6194 90.6591 37.8269 92.7826 36.4858L92.5083 37.9895H98.1573L103.979 5.924H98.3504V5.91385ZM59.9856 22.6984C61.5096 20.3718 63.8769 18.8477 66.4678 18.8477C69.1704 18.8477 70.8976 20.3921 71.4158 22.6984H59.9856ZM95.221 26.0208C94.3371 30.2373 90.8014 33.1228 87.0015 33.1228C84.1363 33.1228 80.9054 30.7046 81.8706 26.224C82.7748 22.0177 86.1886 18.8376 89.9377 18.8376C93.7884 18.8376 96.0643 21.9872 95.221 26.0208Z" fill="white"/>
<path d="M160.927 23.8669C160.713 21.0118 159.25 17.913 156.294 17.3339C156.68 17.5269 157.767 18.0857 158.61 19.3151C159.931 21.2252 159.89 23.7652 159.2 25.9192C157.676 30.6843 153.063 35.1243 146.713 37.1259C148.796 38.0708 151 38.6194 153.225 38.782C158.173 35.1243 161.384 29.6785 160.927 23.8669Z" fill="white"/>
<path d="M156.619 26.8235C158.285 24.4968 159.159 21.1846 157.269 18.8376C157.442 19.2338 157.909 20.3616 157.767 21.845C157.554 24.1615 155.887 26.0818 153.977 27.2807C149.751 29.9528 143.36 30.3897 137.203 27.8395C138.158 29.8309 139.469 31.68 141.125 33.2955C147.272 33.6714 153.236 31.5683 156.619 26.8235Z" fill="white"/>
<path d="M126.88 14.9564C125.224 13.727 123.161 13.026 120.886 13.0463C114.922 13.1072 109.313 17.9232 107.444 23.8973L109.384 13.219H103.735L99.2343 37.9793H104.883L106.793 27.4534C106.458 33.6816 110.36 38.7109 116.232 38.6499C118.569 38.6296 120.875 37.8879 122.938 36.6483L122.694 37.9793H128.343L132.844 13.219H127.195L126.88 14.9564ZM125.702 26.0106C124.818 30.2271 121.119 33.1126 117.33 33.1126C113.936 33.1126 111.518 29.8613 112.249 26.2138C113.093 21.9974 116.425 18.8274 120.418 18.8274C124.269 18.8274 126.545 21.9771 125.702 26.0106Z" fill="white"/>
<path d="M151.417 26.3155C154.191 25.6144 156.985 23.623 157.046 20.6156C156.924 21.0322 156.558 22.1904 155.491 23.2471C153.835 24.8829 151.325 25.2791 149.09 24.9743C144.132 24.3037 138.961 20.5343 135.882 14.6313C135.323 16.836 135.161 19.1017 135.384 21.337C139.855 25.5534 145.778 27.7785 151.417 26.3155Z" fill="white"/>
</g>
<defs>
<clipPath id="clip0_309_1614">
<rect width="288" height="38.8085" fill="white"/>
</clipPath>
</defs>
</svg>
